<?xml version="1.0" encoding="utf-8"?>
<!-- Generator: Adobe Illustrator 14.0.0, SVG Export Plug-In . SVG Version: 6.00 Build 43363)  -->
<!DOCTYPE svg PUBLIC "-//W3C//DTD SVG 1.1//EN" "http://www.w3.org/Graphics/SVG/1.1/DTD/svg11.dtd">
<svg version="1.1" id="Layer_1" xmlns="http://www.w3.org/2000/svg" xmlns:xlink="http://www.w3.org/1999/xlink" x="0px" y="0px"
	 width="512px" height="512px" viewBox="0 0 512 512" enable-background="new 0 0 512 512" xml:space="preserve">
<g id="Sound_Paths" display="none">
	<path id="Sound_Outer_1_" display="inline" fill="none" stroke="#000000" stroke-width="32" d="M404.508,101.528
		c39.635,39.633,64.146,94.385,64.146,154.862c0,60.368-24.43,115.03-63.938,154.646"/>
	<path id="Sound_Middle_1_" display="inline" fill="none" stroke="#000000" stroke-width="32" d="M352.816,359.132
		c26.463-26.426,42.836-62.957,42.836-103.312c0-40.173-16.229-76.554-42.482-102.953"/>
	<path id="Sound_Inner_1_" display="inline" fill="none" stroke="#000000" stroke-width="32" d="M301.547,204.491
		c13.043,13.188,21.104,31.315,21.104,51.329c0,20.196-8.203,38.474-21.458,51.69"/>
</g>
<g id="Sound">
	<path fill="#7F7F7F" d="M364.122,370.171l-22.611-22.644c24.598-24.563,38.144-57.231,38.144-91.989
		c0-34.586-13.436-67.142-37.827-91.671l22.688-22.564c30.397,30.565,47.14,71.135,47.14,114.235
		C411.652,298.852,394.772,339.563,364.122,370.171L364.122,370.171z"/>
	<path fill="#7F7F7F" d="M312.491,318.559l-22.597-22.66c10.806-10.772,16.756-25.105,16.756-40.358
		c0-15.099-5.854-29.333-16.479-40.078l22.752-22.502c16.591,16.776,25.729,39,25.729,62.58
		C338.65,279.355,329.36,301.736,312.491,318.559L312.491,318.559z"/>
</g>
<polygon id="Speaker" fill="#7F7F7F" points="253.346,64 253.346,448 125.346,352 27.346,352 27.346,160 125.346,160 "/>
</svg>
